<svg width="70" height="70" viewBox="0 0 70 70" version="1.1" xmlns="http://www.w3.org/2000/svg" xmlns:xlink="http://www.w3.org/1999/xlink">
<g id="Canvas" fill="none">
<g id="Group 3">
<g id="Group" filter="url(#filter0_d)">
<g id="Ellipse 2" transform="translate(10 8)">
<circle cx="25" cy="25" r="25" fill="#F1B400"/>
<circle cx="25" cy="25" r="24.5" stroke="white" stroke-opacity="0.15"/>
</g>
</g>
<g id="Exclude" transform="matrix(-0.988924 0.148424 0.141149 0.989988 46 19)">
<mask id="path-3-inside-1" fill="white">
<path fill-rule="evenodd" clip-rule="evenodd" d="M 23.2342 19.433C 23.1821 19.5112 23.164 19.607 23.1855 19.6981L 23.9929 23.1198C 24.0492 23.3584 23.8368 23.5744 23.5944 23.5251L 20.097 22.8139C 20.0052 22.7953 19.9099 22.8152 19.8327 22.8678C 17.7939 24.2582 15.3231 25.0721 12.6604 25.0721C 5.66826 25.0721 0 19.4595 0 12.536C 0 5.61258 5.66826 0 12.6604 0C 19.6526 0 25.3208 5.61258 25.3208 12.536C 25.3208 15.0841 24.5531 17.4545 23.2342 19.433Z"/>
</mask>
<g mask="url(#path-3-inside-1)">
<path d="M 23.1855 19.6981L 24.7428 19.3307L 24.7428 19.3307L 23.1855 19.6981ZM 23.2342 19.433L 21.9029 18.5455L 21.9029 18.5456L 23.2342 19.433ZM 23.9929 23.1198L 22.4356 23.4872L 22.4356 23.4872L 23.9929 23.1198ZM 23.5944 23.5251L 23.2756 25.093L 23.2756 25.093L 23.5944 23.5251ZM 20.097 22.8139L 20.4158 21.246L 20.4158 21.246L 20.097 22.8139ZM 19.8327 22.8678L 20.7341 24.1897L 20.7341 24.1897L 19.8327 22.8678ZM 24.7428 19.3307C 24.8256 19.682 24.7531 20.0391 24.5655 20.3205L 21.9029 18.5456C 21.6111 18.9832 21.5024 19.532 21.6283 20.0656L 24.7428 19.3307ZM 25.5501 22.7523L 24.7428 19.3307L 21.6283 20.0656L 22.4356 23.4872L 25.5501 22.7523ZM 23.2756 25.093C 24.6349 25.3694 25.8809 24.1543 25.5501 22.7523L 22.4356 23.4872C 22.2174 22.5624 23.0387 21.7793 23.9132 21.9572L 23.2756 25.093ZM 19.7781 24.3819L 23.2756 25.093L 23.9132 21.9572L 20.4158 21.246L 19.7781 24.3819ZM 20.7341 24.1897C 20.4613 24.3758 20.1178 24.4509 19.7781 24.3819L 20.4158 21.246C 19.8926 21.1396 19.3584 21.2547 18.9313 21.5459L 20.7341 24.1897ZM 12.6604 26.6721C 15.6538 26.6721 18.4372 25.7561 20.7341 24.1897L 18.9313 21.5459C 17.1506 22.7602 14.9925 23.4721 12.6604 23.4721L 12.6604 26.6721ZM -1.6 12.536C -1.6 20.358 4.79953 26.6721 12.6604 26.6721L 12.6604 23.4721C 6.53699 23.4721 1.6 18.561 1.6 12.536L -1.6 12.536ZM 12.6604 -1.6C 4.79953 -1.6 -1.6 4.71407 -1.6 12.536L 1.6 12.536C 1.6 6.51109 6.53699 1.6 12.6604 1.6L 12.6604 -1.6ZM 26.9208 12.536C 26.9208 4.71407 20.5213 -1.6 12.6604 -1.6L 12.6604 1.6C 18.7838 1.6 23.7208 6.51109 23.7208 12.536L 26.9208 12.536ZM 24.5655 20.3205C 26.0536 18.0882 26.9208 15.4105 26.9208 12.536L 23.7208 12.536C 23.7208 14.7576 23.0526 16.8209 21.9029 18.5455L 24.5655 20.3205Z" fill="white"/>
</g>
</g>
<g id="Group 2">
<ellipse id="Ellipse" cx="1.40761" cy="1.44146" rx="1.40761" ry="1.44146" transform="translate(29 32)" fill="white"/>
<ellipse id="Ellipse_2" cx="1.40761" cy="1.44146" rx="1.40761" ry="1.44146" transform="translate(33.692 32)" fill="white"/>
<ellipse id="Ellipse_3" cx="1.40761" cy="1.44146" rx="1.40761" ry="1.44146" transform="translate(38.3841 32)" fill="white"/>
</g>
</g>
</g>
<defs>
<filter id="filter0_d" x="0" y="0" width="70" height="70" filterUnits="userSpaceOnUse" color-interpolation-filters="sRGB">
<feFlood flood-opacity="0" result="BackgroundImageFix"/>
<feColorMatrix in="SourceAlpha" type="matrix" values="0 0 0 0 0 0 0 0 0 0 0 0 0 0 0 0 0 0 255 0"/>
<feOffset dy="2"/>
<feGaussianBlur stdDeviation="5"/>
<feColorMatrix type="matrix" values="0 0 0 0 0 0 0 0 0 0 0 0 0 0 0 0 0 0 0.25 0"/>
<feBlend mode="normal" in2="BackgroundImageFix" result="effect1_dropShadow"/>
<feBlend mode="normal" in="SourceGraphic" in2="effect1_dropShadow" result="shape"/>
</filter>
</defs>
</svg>
