<svg width="162" height="59" viewBox="0 0 162 59" version="1.1" xmlns="http://www.w3.org/2000/svg" xmlns:xlink="http://www.w3.org/1999/xlink">
<g id="Canvas" fill="none">
<g id="Group 4">
<g id="Findebt" transform="translate(0 31.0497)">
<path d="M 0.955145 27.5621C 0.689827 27.5621 0.464307 27.4715 0.278584 27.2904C 0.0928617 27.1092 0 26.8892 0 26.6304L 0 1.35869C 0 1.07401 0.0795942 0.841096 0.238785 0.659936C 0.424507 0.478778 0.663295 0.388198 0.955145 0.388198L 18.2273 0.388198C 18.5192 0.388198 18.758 0.478778 18.9437 0.659936C 19.1294 0.841096 19.2223 1.07401 19.2223 1.35869L 19.2223 4.07608C 19.2223 4.36076 19.1294 4.59368 18.9437 4.77484C 18.758 4.93012 18.5192 5.00776 18.2273 5.00776L 5.45228 5.00776L 5.45228 12.3835L 17.4314 12.3835C 17.7232 12.3835 17.962 12.4741 18.1477 12.6553C 18.3335 12.8364 18.4263 13.0694 18.4263 13.354L 18.4263 16.0714C 18.4263 16.3561 18.3335 16.589 18.1477 16.7702C 17.962 16.9255 17.7232 17.0031 17.4314 17.0031L 5.45228 17.0031L 5.45228 26.6304C 5.45228 26.9151 5.35942 27.148 5.1737 27.3292C 4.98798 27.4845 4.74919 27.5621 4.45734 27.5621L 0.955145 27.5621Z" fill="white"/>
<path d="M 22.3161 27.5621C 22.0508 27.5621 21.8252 27.4715 21.6395 27.2904C 21.4538 27.1092 21.3609 26.8892 21.3609 26.6304L 21.3609 8.30745C 21.3609 8.04865 21.4538 7.82867 21.6395 7.64751C 21.8252 7.46635 22.0508 7.37577 22.3161 7.37577L 25.6193 7.37577C 25.9111 7.37577 26.1366 7.46635 26.2958 7.64751C 26.4816 7.80279 26.5744 8.02277 26.5744 8.30745L 26.5744 26.6304C 26.5744 26.8892 26.4816 27.1092 26.2958 27.2904C 26.1366 27.4715 25.9111 27.5621 25.6193 27.5621L 22.3161 27.5621Z" fill="white"/>
<path d="M 30.7462 27.5621C 30.4809 27.5621 30.2553 27.4715 30.0696 27.2904C 29.8839 27.1092 29.791 26.8892 29.791 26.6304L 29.791 8.30745C 29.791 8.04865 29.8839 7.82867 30.0696 7.64751C 30.2553 7.46635 30.4809 7.37577 30.7462 7.37577L 34.0096 7.37577C 34.2749 7.37577 34.5004 7.46635 34.6861 7.64751C 34.8719 7.82867 34.9647 8.04865 34.9647 8.30745L 34.9647 9.89906C 36.5301 7.95807 38.7455 6.98758 41.6109 6.98758C 44.0519 6.98758 45.9887 7.77691 47.4214 9.35559C 48.8541 10.9084 49.5705 13.0305 49.5705 15.722L 49.5705 26.6304C 49.5705 26.8892 49.4776 27.1092 49.2919 27.2904C 49.1327 27.4715 48.9072 27.5621 48.6153 27.5621L 45.1131 27.5621C 44.8478 27.5621 44.6223 27.4715 44.4366 27.2904C 44.2508 27.1092 44.158 26.8892 44.158 26.6304L 44.158 15.955C 44.158 14.4281 43.7733 13.2505 43.0039 12.4224C 42.261 11.5683 41.1732 11.1413 39.7404 11.1413C 38.3343 11.1413 37.2199 11.5683 36.3974 12.4224C 35.6015 13.2764 35.2035 14.4539 35.2035 15.955L 35.2035 26.6304C 35.2035 26.8892 35.1106 27.1092 34.9249 27.2904C 34.7657 27.4715 34.5402 27.5621 34.2484 27.5621L 30.7462 27.5621Z" fill="white"/>
<path d="M 60.2432 27.9503C 57.5635 27.9503 55.5073 27.1092 54.0746 25.427C 52.6419 23.7448 51.8725 21.5062 51.7663 18.7112L 51.7265 17.4301L 51.7663 16.1879C 51.8459 13.4705 52.6021 11.2578 54.0348 9.54969C 55.494 7.84161 57.5635 6.98758 60.2432 6.98758C 62.8168 6.98758 64.8598 7.84161 66.3721 9.54969L 66.3721 0.931676C 66.3721 0.646996 66.4649 0.427017 66.6507 0.271738C 66.8364 0.0905793 67.0619 0 67.3272 0L 70.71 0C 71.0019 0 71.2274 0.0905793 71.3866 0.271738C 71.5723 0.427017 71.6652 0.646996 71.6652 0.931676L 71.6652 26.6304C 71.6652 26.8892 71.5723 27.1092 71.3866 27.2904C 71.2274 27.4715 71.0019 27.5621 70.71 27.5621L 67.566 27.5621C 67.3007 27.5621 67.0752 27.4715 66.8895 27.2904C 66.7037 27.1092 66.6109 26.8892 66.6109 26.6304L 66.6109 25.1941C 65.0985 27.0316 62.976 27.9503 60.2432 27.9503ZM 61.7158 23.7966C 63.2546 23.7966 64.3955 23.3178 65.1383 22.3602C 65.8812 21.4027 66.2925 20.2252 66.3721 18.8276C 66.3986 18.5171 66.4119 18.0124 66.4119 17.3137C 66.4119 16.6408 66.3986 16.1491 66.3721 15.8385C 66.319 14.5445 65.8945 13.4446 65.0986 12.5388C 64.3291 11.6071 63.2015 11.1413 61.7158 11.1413C 58.8503 11.1413 57.3247 12.8623 57.139 16.3043L 57.0992 17.4689L 57.139 18.6335C 57.3247 22.0756 58.8503 23.7966 61.7158 23.7966Z" fill="white"/>
<path d="M 83.8207 27.9503C 80.8757 27.9503 78.5276 27.1222 76.7765 25.4658C 75.052 23.7836 74.1366 21.4286 74.0305 18.4006L 73.9907 17.4301L 74.0305 16.4596C 74.1631 13.5093 75.0917 11.1931 76.8163 9.51087C 78.5674 7.82867 80.9022 6.98758 83.8207 6.98758C 86.9515 6.98758 89.3658 7.91925 91.0639 9.78261C 92.7884 11.646 93.6507 14.1304 93.6507 17.236L 93.6507 18.0512C 93.6507 18.31 93.5579 18.53 93.3721 18.7112C 93.1864 18.8923 92.9476 18.9829 92.6558 18.9829L 79.443 18.9829L 79.443 19.2935C 79.496 20.7169 79.894 21.9203 80.6369 22.9037C 81.4063 23.8613 82.4543 24.3401 83.7809 24.3401C 85.3463 24.3401 86.6065 23.7448 87.5617 22.5543C 87.8005 22.2697 87.9862 22.0885 88.1188 22.0109C 88.278 21.9332 88.5036 21.8944 88.7954 21.8944L 92.218 21.8944C 92.4568 21.8944 92.6558 21.972 92.815 22.1273C 93.0007 22.2567 93.0936 22.4249 93.0936 22.632C 93.0936 23.2531 92.7088 23.9907 91.9394 24.8447C 91.1965 25.6729 90.122 26.3975 88.7158 27.0186C 87.3096 27.6397 85.6779 27.9503 83.8207 27.9503ZM 88.2382 15.722L 88.2382 15.6056C 88.2382 14.0787 87.8403 12.8494 87.0443 11.9177C 86.2749 10.986 85.2004 10.5202 83.8207 10.5202C 82.4411 10.5202 81.3665 10.986 80.5971 11.9177C 79.8277 12.8494 79.443 14.0787 79.443 15.6056L 79.443 15.722L 88.2382 15.722Z" fill="white"/>
<path d="M 107.273 27.9503C 104.541 27.9503 102.418 27.0316 100.906 25.1941L 100.906 26.6304C 100.906 26.8892 100.813 27.1092 100.627 27.2904C 100.468 27.4715 100.243 27.5621 99.9507 27.5621L 96.8067 27.5621C 96.5414 27.5621 96.3159 27.4715 96.1301 27.2904C 95.9444 27.1092 95.8516 26.8892 95.8516 26.6304L 95.8516 0.931676C 95.8516 0.646996 95.9444 0.427017 96.1301 0.271738C 96.3159 0.0905793 96.5414 0 96.8067 0L 100.19 0C 100.481 0 100.707 0.0905793 100.866 0.271738C 101.052 0.427017 101.145 0.646996 101.145 0.931676L 101.145 9.54969C 102.657 7.84161 104.7 6.98758 107.273 6.98758C 109.953 6.98758 112.009 7.84161 113.442 9.54969C 114.875 11.2578 115.644 13.4705 115.75 16.1879C 115.777 16.4984 115.79 16.9125 115.79 17.4301C 115.79 17.9736 115.777 18.4006 115.75 18.7112C 115.644 21.5062 114.875 23.7448 113.442 25.427C 112.009 27.1092 109.953 27.9503 107.273 27.9503ZM 105.801 23.7966C 108.666 23.7966 110.192 22.0756 110.378 18.6335C 110.404 18.3747 110.418 17.9865 110.418 17.4689C 110.418 16.9513 110.404 16.5631 110.378 16.3043C 110.192 12.8623 108.666 11.1413 105.801 11.1413C 104.315 11.1413 103.174 11.6071 102.378 12.5388C 101.609 13.4446 101.198 14.5445 101.145 15.8385L 101.105 17.3137L 101.145 18.8276C 101.224 20.2252 101.635 21.4027 102.378 22.3602C 103.121 23.3178 104.262 23.7966 105.801 23.7966Z" fill="white"/>
<path d="M 127.353 27.5621C 124.938 27.5621 123.121 26.9539 121.9 25.7376C 120.706 24.4953 120.109 22.6837 120.109 20.3028L 120.109 11.4907L 116.965 11.4907C 116.7 11.4907 116.474 11.4001 116.289 11.2189C 116.103 11.0119 116.01 10.779 116.01 10.5202L 116.01 8.30745C 116.01 8.04865 116.103 7.82867 116.289 7.64751C 116.474 7.46635 116.7 7.37577 116.965 7.37577L 120.109 7.37577L 120.109 0.931676C 120.109 0.646996 120.202 0.427017 120.388 0.271738C 120.574 0.0905793 120.799 0 121.064 0L 124.288 0C 124.58 0 124.805 0.0905793 124.965 0.271738C 125.15 0.427017 125.243 0.646996 125.243 0.931676L 125.243 7.37577L 130.218 7.37577C 130.51 7.37577 130.735 7.46635 130.894 7.64751C 131.08 7.80279 131.173 8.02277 131.173 8.30745L 131.173 10.5202C 131.173 10.8049 131.08 11.0378 130.894 11.2189C 130.709 11.4001 130.483 11.4907 130.218 11.4907L 125.243 11.4907L 125.243 19.9146C 125.243 21.0274 125.442 21.8685 125.84 22.4379C 126.238 23.0072 126.901 23.2919 127.83 23.2919L 130.576 23.2919C 130.841 23.2919 131.067 23.3825 131.253 23.5637C 131.438 23.7448 131.531 23.9648 131.531 24.2236L 131.531 26.6304C 131.531 26.8892 131.438 27.1092 131.253 27.2904C 131.093 27.4715 130.868 27.5621 130.576 27.5621L 127.353 27.5621Z" fill="white"/>
</g>
<g id="Group 3">
<g id="Exclude" transform="matrix(-0.988924 0.148424 0.141149 0.989988 159.295 -2)">
<mask id="path-2-inside-1" fill="white">
<path fill-rule="evenodd" clip-rule="evenodd" d="M 30.893 25.8388C 30.8237 25.9427 30.7997 26.0701 30.8283 26.1913L 31.9017 30.7408C 31.9766 31.0581 31.6942 31.3453 31.3719 31.2798L 26.7216 30.3342C 26.5996 30.3094 26.4728 30.3359 26.3702 30.4058C 23.6594 32.2545 20.3742 33.3367 16.8337 33.3367C 7.53671 33.3367 0 25.874 0 16.6684C 0 7.46268 7.53671 0 16.8337 0C 26.1307 0 33.6674 7.46268 33.6674 16.6684C 33.6674 20.0563 32.6466 23.2081 30.893 25.8388Z"/>
</mask>
<g mask="url(#path-2-inside-1)">
<path d="M 30.8283 26.1913L 33.7481 25.5024L 33.7481 25.5024L 30.8283 26.1913ZM 30.893 25.8388L 28.3968 24.1748L 28.3968 24.1748L 30.893 25.8388ZM 31.9017 30.7408L 28.9819 31.4298L 28.9819 31.4298L 31.9017 30.7408ZM 31.3719 31.2798L 30.7742 34.2196L 30.7742 34.2196L 31.3719 31.2798ZM 26.7216 30.3342L 27.3194 27.3943L 27.3194 27.3943L 26.7216 30.3342ZM 26.3702 30.4058L 28.0604 32.8844L 28.0604 32.8844L 26.3702 30.4058ZM 33.7481 25.5024C 33.9152 26.2107 33.7693 26.9326 33.3892 27.5028L 28.3968 24.1748C 27.8782 24.9528 27.6841 25.9295 27.9084 26.8802L 33.7481 25.5024ZM 34.8215 30.0519L 33.7481 25.5024L 27.9084 26.8802L 28.9819 31.4298L 34.8215 30.0519ZM 30.7742 34.2196C 33.1907 34.711 35.4111 32.5504 34.8215 30.0519L 28.9819 31.4298C 28.5421 29.5657 30.1977 27.9796 31.9697 28.3399L 30.7742 34.2196ZM 26.1238 33.274L 30.7742 34.2196L 31.9697 28.3399L 27.3194 27.3943L 26.1238 33.274ZM 28.0604 32.8844C 27.5068 33.2619 26.8107 33.4137 26.1238 33.274L 27.3194 27.3943C 26.3885 27.2051 25.4388 27.4099 24.68 27.9273L 28.0604 32.8844ZM 16.8337 36.3367C 20.9942 36.3367 24.8656 35.063 28.0604 32.8844L 24.68 27.9273C 22.4531 29.4459 19.7542 30.3367 16.8337 30.3367L 16.8337 36.3367ZM -3 16.6684C -3 27.5587 5.90785 36.3367 16.8337 36.3367L 16.8337 30.3367C 9.16558 30.3367 3 24.1893 3 16.6684L -3 16.6684ZM 16.8337 -3C 5.90785 -3 -3 5.77797 -3 16.6684L 3 16.6684C 3 9.14738 9.16558 3 16.8337 3L 16.8337 -3ZM 36.6674 16.6684C 36.6674 5.77797 27.7596 -3 16.8337 -3L 16.8337 3C 24.5019 3 30.6674 9.14739 30.6674 16.6684L 36.6674 16.6684ZM 33.3892 27.5028C 35.4602 24.3962 36.6674 20.6684 36.6674 16.6684L 30.6674 16.6684C 30.6674 19.4442 29.8331 22.0201 28.3968 24.1748L 33.3892 27.5028Z" fill="white"/>
</g>
</g>
<g id="Group 2">
<ellipse id="Ellipse" cx="1.87161" cy="1.91662" rx="1.87161" ry="1.91662" transform="translate(136.691 15.2852)" fill="white"/>
<ellipse id="Ellipse_2" cx="1.87161" cy="1.91662" rx="1.87161" ry="1.91662" transform="translate(142.929 15.2852)" fill="white"/>
<ellipse id="Ellipse_3" cx="1.87161" cy="1.91662" rx="1.87161" ry="1.91662" transform="translate(149.168 15.2852)" fill="white"/>
</g>
</g>
</g>
</g>
</svg>
