<svg width="56" height="10" viewBox="0 0 56 10" version="1.1" xmlns="http://www.w3.org/2000/svg" xmlns:xlink="http://www.w3.org/1999/xlink">
<g id="Canvas" fill="none">
<g id="Group">
<path id="Vector" d="M 7.38794 4.57663C 7.3742 4.21274 7.27121 3.85584 7.09269 3.53394L 5.47916 0.692792C 5.35557 0.475857 5.27317 0.244927 5.22511 0L 5.15645 0.118964C 4.75821 0.825752 4.75821 1.69349 5.15645 2.40028L 6.44728 4.6816C 6.84551 5.38838 6.84551 6.25612 6.44728 6.96291L 6.37862 7.08188C 6.33055 6.83695 6.24816 6.60602 6.12457 6.39608L 4.9436 4.30371L 4.18833 2.97411C 4.06474 2.75717 3.98234 2.52624 3.93428 2.28831L 3.86562 2.40728C 3.46739 3.10707 3.46739 3.97481 3.85875 4.6816L 5.15645 6.96291C 5.55468 7.6697 5.55468 8.53744 5.15645 9.24423L 5.08779 9.36319C 5.03973 9.11827 4.95047 8.88733 4.83374 8.6774L 3.22021 5.82225C 3.00736 5.44437 2.90436 5.01749 2.92496 4.58363C 1.1947 5.03849 0 6.01819 0 7.15185C 0 8.72638 2.30701 10 5.15645 10C 8.00589 10 10.3129 8.72638 10.3129 7.15185C 10.3129 6.01819 9.1182 5.03849 7.38794 4.57663ZM 12.256 9.44717C 12.2697 9.10427 12.3315 8.76837 12.4414 8.45346C 12.9975 8.70539 13.6018 8.83135 14.2128 8.83835C 15.1123 8.83835 15.6135 8.54444 15.6135 7.95661C 15.6135 7.36879 15.2428 7.11687 14.3364 6.71099L 13.8421 6.49405C 12.9289 6.08817 12.3109 5.56333 12.3109 4.52064C 12.3109 3.39398 13.0731 2.6732 14.6454 2.6732C 15.2496 2.6662 15.847 2.76417 16.4169 2.96011C 16.3963 3.29601 16.3276 3.62491 16.2246 3.94682C 15.7165 3.76487 15.181 3.6669 14.6385 3.6599C 13.794 3.6599 13.4095 3.9958 13.4095 4.52064C 13.4095 5.04549 13.7872 5.3324 14.4669 5.62631L 14.9887 5.85025C 16.2178 6.38209 16.7327 6.94892 16.7327 7.90763C 16.7327 9.04129 15.8882 9.82505 14.2472 9.82505C 13.4507 9.82505 12.7984 9.70609 12.256 9.44717ZM 21.9372 4.73058L 21.9372 9.6641L 20.9622 9.6641L 20.9073 9.06928C 20.6327 9.50315 20.2207 9.77607 19.541 9.77607C 18.2639 9.77607 17.4125 8.83135 17.4125 7.17285C 17.4125 5.43737 18.3257 4.45066 20.1177 4.45066C 20.8043 4.45066 21.3742 4.52764 21.9372 4.73058ZM 20.8661 8.53744L 20.8661 5.43737C 20.6121 5.39538 20.358 5.37439 20.104 5.38139C 18.9985 5.38139 18.4904 6.07418 18.4904 7.17985C 18.4904 8.18754 18.8887 8.89433 19.8362 8.89433C 20.207 8.89433 20.5709 8.76837 20.8661 8.53744ZM 27.3889 6.3471L 27.3889 9.6641L 26.3247 9.6641L 26.3247 6.53604C 26.3247 5.75927 26.0706 5.38139 25.0064 5.38139C 24.7249 5.38838 24.4434 5.40938 24.1618 5.45836L 24.1618 9.6641L 23.0976 9.6641L 23.0976 4.73058C 23.7773 4.56263 24.5189 4.45766 25.0338 4.45766C 26.8122 4.45067 27.3889 5.15045 27.3889 6.3471ZM 30.3413 8.85234C 30.6229 8.85234 30.9044 8.80336 31.1721 8.70539C 31.1447 8.9993 31.1035 9.3352 31.0486 9.62211C 30.7602 9.73408 30.4581 9.78307 30.1491 9.77607C 29.1123 9.77607 28.4532 9.29321 28.4532 8.08957L 28.4532 2.91113C 28.7965 2.80616 29.1604 2.75018 29.5174 2.75018L 29.5174 4.61861L 31.1996 4.61861C 31.1859 4.92652 31.1515 5.24143 31.1035 5.54934L 29.5174 5.54934L 29.5174 7.97061C 29.5174 8.60742 29.8264 8.85234 30.3413 8.85234ZM 36.0539 4.72358L 36.0539 9.6571L 35.079 9.6571L 35.0172 9.06228C 34.7425 9.49615 34.3306 9.76907 33.6508 9.76907C 32.3737 9.76907 31.5223 8.82435 31.5223 7.16585C 31.5223 5.43037 32.4355 4.44367 34.2276 4.44367C 34.921 4.45066 35.4909 4.52764 36.0539 4.72358ZM 34.9897 8.53744L 34.9897 5.43737C 34.7357 5.39538 34.4816 5.37439 34.2276 5.38139C 33.1221 5.38139 32.6072 6.07418 32.6072 7.17985C 32.6072 8.18754 33.0054 8.89433 33.9529 8.89433C 34.3306 8.89433 34.6945 8.76837 34.9897 8.53744ZM 41.5056 6.3471L 41.5056 9.6641L 40.4414 9.6641L 40.4414 6.53604C 40.4414 5.75927 40.1873 5.38139 39.1231 5.38139C 38.8416 5.38838 38.5601 5.40938 38.2854 5.45836L 38.2854 9.6641L 37.2143 9.6641L 37.2143 4.73058C 37.8941 4.56263 38.6356 4.45766 39.1506 4.45766C 40.9358 4.45067 41.5056 5.15045 41.5056 6.3471ZM 46.9093 2.75018L 46.9093 9.6571L 45.9343 9.6571L 45.8794 9.02729C 45.6047 9.48915 45.1927 9.77607 44.4924 9.77607C 43.2153 9.77607 42.3639 8.83135 42.3639 7.17285C 42.3639 5.43737 43.2771 4.45066 45.0623 4.45066C 45.3301 4.45066 45.5978 4.47866 45.8588 4.52764L 45.8588 2.90413C 46.1883 2.78516 46.566 2.75018 46.9093 2.75018ZM 45.8588 8.51645L 45.8588 5.47936C 45.5772 5.41638 45.2957 5.38139 45.0074 5.38139C 43.95 5.38139 43.4487 6.05318 43.4487 7.17985C 43.4487 8.18754 43.847 8.89433 44.7945 8.89433C 45.179 8.89433 45.5566 8.76137 45.8588 8.51645ZM 52.2717 7.55074L 48.873 7.55074C 49.0103 8.43247 49.5115 8.85234 50.4591 8.85234C 51.0495 8.85234 51.6263 8.72638 52.1618 8.47446C 52.1206 8.76137 52.0657 9.13926 51.9971 9.46116C 51.5096 9.68509 51.0015 9.77607 50.4316 9.77607C 48.6464 9.77607 47.7881 8.76837 47.7881 7.08188C 47.7881 5.61232 48.4541 4.44367 50.1501 4.44367C 51.6675 4.44367 52.3266 5.45836 52.3266 6.70399C 52.3266 6.9909 52.306 7.27082 52.2717 7.55074ZM 48.8524 6.64101L 51.2555 6.64101C 51.2555 5.82925 50.8298 5.36039 50.0951 5.36039C 49.333 5.36039 48.9348 5.80126 48.8524 6.64101ZM 56 4.49265C 56 4.80756 55.9725 5.11547 55.9039 5.42337C 55.6361 5.39538 55.3683 5.38139 55.1005 5.38139C 54.8396 5.38139 54.5787 5.40238 54.3178 5.43737L 54.3178 9.6641L 53.2536 9.6641L 53.2536 4.73058C 53.7067 4.57663 54.4757 4.45766 55.0731 4.45766C 55.3752 4.45067 55.691 4.46466 56 4.49265Z" fill="white"/>
</g>
</g>
</svg>
